<?xml version="1.0" standalone="no"?>
<!DOCTYPE svg PUBLIC "-//W3C//DTD SVG 20010904//EN"
 "http://www.w3.org/TR/2001/REC-SVG-20010904/DTD/svg10.dtd">
<svg version="1.0" xmlns="http://www.w3.org/2000/svg"
 width="300.000000pt" height="300.000000pt" viewBox="0 0 300.000000 300.000000"
 preserveAspectRatio="xMidYMid meet">

<g transform="translate(0.000000,300.000000) scale(0.100000,-0.100000)"
fill="#000000" stroke="none">
<path d="M1360 2483 c-85 -164 -196 -376 -246 -473 -51 -96 -212 -404 -358
-685 -146 -280 -266 -510 -266 -512 0 -2 117 -3 260 -3 l260 0 -150 -300 c-82
-165 -150 -302 -150 -305 0 -3 54 -5 120 -5 l120 0 152 305 153 305 612 0
c337 0 613 3 613 6 0 9 -725 1439 -736 1453 -2 2 -144 -279 -316 -623 l-313
-626 -143 0 c-79 0 -142 3 -140 8 8 18 100 195 368 707 159 303 319 610 358
683 l69 133 -51 115 c-28 62 -53 114 -56 114 -3 0 -75 -134 -160 -297z m585
-1073 c107 -214 195 -393 195 -396 0 -7 -771 4 -778 10 -4 5 375 776 382 776
3 0 94 -175 201 -390z"/>
</g>
</svg>
